# xmcd
#
# Track frame offsets: 
#        150
#        15147
#        47547
#        71772
#        102072
#        142347
#        189597
#
# Disc length: 3170 seconds
#
# Revision: 0
# Processed by: cddbd v1.5.2PL0 Copyright (c) Steve Scherf et al.
# Submitted via: ExactAudioCopy v0.95b4
#
DISCID=580c6007
DTITLE=Eric Clapton - 1997-10-24 - In The West Of Japan - Disc H
DYEAR=1997
DGENRE=Blues
TTITLE0=Tore Down
TTITLE1=Have You Ever Loved A Woman
TTITLE2=Cocaine
TTITLE3=Tearing Us Apart
TTITLE4=Old Love
TTITLE5=Sunshine Of Your Love
TTITLE6=Everyday I Have The Blues
EXTD=
EXTT0=
EXTT1=
EXTT2=
EXTT3=
EXTT4=
EXTT5=
EXTT6=
PLAYORDER=
